<?xml version="1.0" encoding="utf-8"?><svg viewBox="0 0 745 1024" xmlns="http://www.w3.org/2000/svg" xmlns:xlink="http://www.w3.org/1999/xlink"><style>:root>svg{display:none}:root>svg:target{display:block}</style><svg fill="none" viewBox="0 0 125 75" id="Log" xmlns="http://www.w3.org/2000/svg"><path d="M31.833 29.488h56.55v-7.981h-56.55V8.042h56.55V.061H27.478c-2.024 0-3.68 1.645-3.68 3.655v39.298h8.035V29.488z" fill="#44C697"/><path d="M97.584 0h-4.417v42.953h8.035V3.656C101.264 1.645 99.608 0 97.584 0z" fill="#1E2E36"/><path d="M107.581 27.965V49.29H17.419V27.965H4.6a4.579 4.579 0 00-4.6 4.57v12.124c0 2.559 2.085 4.57 4.6 4.57h2.944l1.288 14.987V75h3.312l3.864-10.784h92.984L112.856 75h3.312V64.216l1.288-14.988h2.944c2.576 0 4.6-2.071 4.6-4.57V32.536c0-2.56-2.085-4.57-4.6-4.57h-12.819z" fill="#1E2E36"/></svg><svg fill="none" viewBox="0 0 125 75" id="Log-white" xmlns="http://www.w3.org/2000/svg"><path d="M31.833 29.488h56.55v-7.981h-56.55V8.042h56.55V.061H27.478c-2.024 0-3.68 1.645-3.68 3.656v39.297h8.035V29.488z" fill="#44C697"/><path d="M97.584 0h-4.417v42.953h8.035V3.656C101.264 1.645 99.608 0 97.584 0z" fill="#fff"/><path d="M107.581 27.965v21.324H17.419V27.965H4.6a4.579 4.579 0 00-4.6 4.57v12.124c0 2.559 2.085 4.57 4.6 4.57h2.944l1.288 14.987V75h3.312l3.864-10.784h92.984L112.856 75h3.312V64.216l1.288-14.988h2.944c2.576 0 4.6-2.071 4.6-4.57V32.535c0-2.559-2.085-4.57-4.6-4.57h-12.819z" fill="#fff"/></svg><svg fill="none" viewBox="0 0 20 21" id="glossiness" xmlns="http://www.w3.org/2000/svg"><path d="M11.107 0C6.03 1.728 1.747 5.25 0 10.5c1.726 5.19 5.97 8.752 11.107 10.5 4.569-3.554 7.06-6.409 8.893-10.5-2.63-1.782-3.736-2.7-5.869-5.458-2.857 1.34-5.345 2.9-7.548 5.401.79 1.137 2.104 2.197 3.165 3.07 1.547-1.148 2.727-2.266 3.49-3.225.48.591 1.02.984 1.535 1.313-1.33 2.281-2.821 3.534-4.663 4.73-2.767-1.477-4.99-4.035-6.072-6.198 2.026-3.371 5.204-5.647 8.815-6.915C12.268 2.184 11.5 1.22 11.107 0z" fill="#FFD001"/></svg><svg viewBox="0 0 745 1024" id="phone" xmlns="http://www.w3.org/2000/svg"><path fill="none" stroke-linejoin="round" stroke-linecap="round" stroke-width="69.818" stroke="#000" d="M605.091 46.545H139.636c-51.413 0-93.091 41.678-93.091 93.091v744.727c0 51.414 41.678 93.091 93.091 93.091h465.455c51.414 0 93.091-41.677 93.091-93.091V139.636c0-51.413-41.677-93.091-93.091-93.091zM372.364 791.273h.465"/></svg><svg fill="none" viewBox="0 0 24 24" id="smartphone-green" xmlns="http://www.w3.org/2000/svg"><path d="M17 2H7a2 2 0 00-2 2v16a2 2 0 002 2h10a2 2 0 002-2V4a2 2 0 00-2-2zM12 18h.01" stroke="#44C697" stroke-width="1.5" stroke-linecap="round" stroke-linejoin="round"/></svg></svg>